<svg width="8" height="8" viewBox="0 0 8 8" fill="none" xmlns="http://www.w3.org/2000/svg">
<path d="M5 6.5H0.5V5C0.765216 5 1.01957 4.89464 1.20711 4.70711C1.39464 4.51957 1.5 4.26522 1.5 4C1.5 3.73478 1.39464 3.48043 1.20711 3.29289C1.01957 3.10536 0.765216 3 0.5 3V1.5H5V2.75H5.5V1.5H7.5V3C7.23478 3 6.98043 3.10536 6.79289 3.29289C6.60536 3.48043 6.5 3.73478 6.5 4C6.5 4.26522 6.60536 4.51957 6.79289 4.70711C6.98043 4.89464 7.23478 5 7.5 5V6.5H5.5V5.25H5V6.5ZM5 3.25V4.75H5.5V3.25H5Z" fill="white"/>
</svg>
