<svg width="22" height="13" viewBox="0 0 22 13" fill="none" xmlns="http://www.w3.org/2000/svg">
<path d="M14.1429 13H0V9.1C0.833538 9.1 1.63294 8.82607 2.22234 8.33848C2.81174 7.85088 3.14286 7.18956 3.14286 6.5C3.14286 5.81044 2.81174 5.14912 2.22234 4.66152C1.63294 4.17393 0.833538 3.9 0 3.9V0H14.1429V3.25H15.7143V0H22V3.9C21.1665 3.9 20.3671 4.17393 19.7777 4.66152C19.1883 5.14912 18.8571 5.81044 18.8571 6.5C18.8571 7.18956 19.1883 7.85088 19.7777 8.33848C20.3671 8.82607 21.1665 9.1 22 9.1V13H15.7143V9.75H14.1429V13ZM14.1429 4.55V8.45H15.7143V4.55H14.1429Z" fill="#202020"/>
</svg>
