<svg width="6" height="7" viewBox="0 0 6 7" fill="none" xmlns="http://www.w3.org/2000/svg">
<path d="M3 3.5C3.20625 3.5 3.38281 3.43146 3.52969 3.29438C3.67656 3.15729 3.75 2.9925 3.75 2.8C3.75 2.6075 3.67656 2.44271 3.52969 2.30562C3.38281 2.16854 3.20625 2.1 3 2.1C2.79375 2.1 2.61719 2.16854 2.47031 2.30562C2.32344 2.44271 2.25 2.6075 2.25 2.8C2.25 2.9925 2.32344 3.15729 2.47031 3.29438C2.61719 3.43146 2.79375 3.5 3 3.5ZM3 7C1.99375 6.20083 1.24219 5.45854 0.745313 4.77312C0.248437 4.08771 0 3.45333 0 2.87C0 1.995 0.301562 1.29792 0.904688 0.77875C1.50781 0.259583 2.20625 0 3 0C3.79375 0 4.49219 0.259583 5.09531 0.77875C5.69844 1.29792 6 1.995 6 2.87C6 3.45333 5.75156 4.08771 5.25469 4.77312C4.75781 5.45854 4.00625 6.20083 3 7Z" fill="white"/>
</svg>
