<svg width="8" height="8" viewBox="0 0 8 8" fill="none" xmlns="http://www.w3.org/2000/svg">
<path d="M4 4C4.20625 4 4.38281 3.93146 4.52969 3.79438C4.67656 3.65729 4.75 3.4925 4.75 3.3C4.75 3.1075 4.67656 2.94271 4.52969 2.80562C4.38281 2.66854 4.20625 2.6 4 2.6C3.79375 2.6 3.61719 2.66854 3.47031 2.80562C3.32344 2.94271 3.25 3.1075 3.25 3.3C3.25 3.4925 3.32344 3.65729 3.47031 3.79438C3.61719 3.93146 3.79375 4 4 4ZM4 7.5C2.99375 6.70083 2.24219 5.95854 1.74531 5.27312C1.24844 4.58771 1 3.95333 1 3.37C1 2.495 1.30156 1.79792 1.90469 1.27875C2.50781 0.759583 3.20625 0.5 4 0.5C4.79375 0.5 5.49219 0.759583 6.09531 1.27875C6.69844 1.79792 7 2.495 7 3.37C7 3.95333 6.75156 4.58771 6.25469 5.27312C5.75781 5.95854 5.00625 6.70083 4 7.5Z" fill="#FEFEFE"/>
</svg>
